<svg width="146" height="146" viewBox="0 0 146 146" fill="none" xmlns="http://www.w3.org/2000/svg">
<path d="M92.0845 20.1568C89.0961 20.1568 86.1596 20.2997 83.296 20.5769H49.9935V20.633L49.874 20.637C49.4947 20.6482 49.1163 20.661 48.7391 20.6764C48.5894 20.6827 48.4405 20.6906 48.2911 20.6978C48.0242 20.71 47.757 20.7223 47.4912 20.7368C47.3201 20.7462 47.1499 20.7577 46.9791 20.7679C46.7361 20.7827 46.4932 20.797 46.2514 20.8138C46.0726 20.8261 45.8944 20.8401 45.7161 20.8535C45.4832 20.8709 45.2505 20.8883 45.0184 20.9074C44.8359 20.9225 44.6542 20.939 44.4723 20.9553C44.2462 20.9755 44.0203 20.9955 43.7953 21.0174C43.6108 21.0354 43.4269 21.0545 43.2427 21.0733C43.0211 21.0961 42.7998 21.1195 42.5791 21.1438C42.1766 21.1888 41.7743 21.2364 41.3724 21.2866C40.5752 21.3869 39.7796 21.4985 38.9856 21.6214C38.8059 21.6493 38.6263 21.6773 38.4472 21.7064C38.2322 21.7412 38.0183 21.7771 37.8045 21.8136C37.6285 21.8435 37.4523 21.8735 37.2772 21.9046C37.0614 21.9428 36.8464 21.9827 36.6316 22.0226C36.46 22.0545 36.2883 22.0859 36.1175 22.1187C35.8993 22.1606 35.6826 22.2045 35.4659 22.2482C35.3005 22.2815 35.1348 22.314 34.97 22.3485C34.7445 22.3956 34.5203 22.4446 34.2962 22.4934C34.1425 22.5268 33.9879 22.5596 33.8348 22.5938C33.5864 22.6494 33.3404 22.7076 33.0937 22.7654C32.9668 22.7954 32.8391 22.8239 32.7127 22.8544C32.3441 22.943 31.9761 23.0346 31.6089 23.129L31.5459 23.1458C31.198 23.2357 30.8518 23.3278 30.5079 23.4224C30.3844 23.4564 30.2627 23.492 30.1395 23.5265C29.9002 23.5938 29.6607 23.6608 29.4234 23.7301C29.2803 23.772 29.1389 23.8154 28.9966 23.8582C28.7818 23.9223 28.5671 23.9865 28.3544 24.0526C28.2033 24.0997 28.0533 24.1482 27.903 24.1961C27.7011 24.2602 27.4992 24.3247 27.2987 24.3905C27.1451 24.441 26.9928 24.4932 26.8399 24.5445C26.6449 24.6104 26.4501 24.6763 26.2568 24.7436C26.1031 24.7972 25.9505 24.8516 25.798 24.9061C25.6081 24.974 25.4184 25.0421 25.2302 25.1114C24.7399 25.2928 24.2518 25.48 23.7659 25.6729C23.1071 25.9354 22.4532 26.21 21.8044 26.4964C21.6264 26.5751 21.4499 26.655 21.2737 26.7351C21.132 26.7995 20.9902 26.864 20.8497 26.9293C20.6729 27.0117 20.4978 27.0953 20.3227 27.1791C20.1855 27.2447 20.0481 27.31 19.9121 27.3767C19.7341 27.464 19.5582 27.5526 19.382 27.6416C19.2522 27.7069 19.1216 27.7719 18.993 27.8381C18.8099 27.9325 18.6291 28.0286 18.4484 28.1247C18.3297 28.1877 18.21 28.2499 18.0922 28.3134C17.8929 28.4215 17.6961 28.5316 17.4996 28.6417C17.4033 28.6955 17.3055 28.7486 17.2099 28.8031C16.9201 28.9678 16.6322 29.1357 16.3462 29.3069C6.87443 34.9741 1.43052 42.7962 1.01818 51.3233L1.01476 51.384C0.999015 51.712 0.990839 52.0403 0.990234 52.3687C0.990234 60.3356 5.70273 67.3864 12.8992 70.4715V110.365C12.8992 118.94 19.875 125.916 28.4496 125.916H76.7477C77.046 125.916 77.3417 125.905 77.636 125.888C77.7055 125.884 77.7745 125.878 77.8438 125.873C78.0771 125.856 78.3092 125.835 78.5396 125.809C78.5998 125.802 78.6597 125.794 78.7196 125.786C78.9683 125.755 79.2161 125.717 79.463 125.673C79.498 125.667 79.5331 125.661 79.5679 125.654C79.8507 125.603 80.132 125.543 80.4114 125.475H116.234C124.808 125.475 131.784 118.5 131.784 109.925V70.0312C138.98 66.9464 143.693 59.8956 143.693 51.9287C143.693 32.6279 123.435 20.1568 92.0845 20.1568Z" fill="#BC7535"/>
<path d="M101.602 52.3687C101.602 34.1891 81.7049 23.202 52.5985 23.202C24.0518 23.202 4.36628 36.0255 3.61974 51.4584L3.61717 51.5038C3.60327 51.7919 3.59595 52.0802 3.59521 52.3687C3.59521 60.0029 8.59857 66.4662 15.5042 68.6648V110.365C15.5042 117.515 21.3 123.31 28.4494 123.31H76.7475C83.8969 123.31 89.6927 117.515 89.6927 110.365V68.6648C96.5984 66.4662 101.602 60.0026 101.602 52.3687Z" fill="#FCDEA2"/>
<path d="M29.2579 86.826C27.4236 86.239 26.6085 88.678 26.2785 90.1777C25.4418 93.9811 27.3806 96.6527 29.9034 99.3144C31.5724 101.075 31.7165 102.431 29.68 103.908C28.8117 104.537 25.4592 106.549 25.4592 104.479" stroke="black" stroke-width="3" stroke-linecap="round"/>
<path d="M50.6892 88.3901C50.6892 91.3878 51.2128 94.0602 51.6947 97.0054C51.9755 98.7214 52.0966 100.475 52.241 102.207C52.2824 102.704 52.2534 102.94 52.2534 102.331C52.2534 100.738 52.2351 99.1442 52.2534 97.5516C52.271 96.0138 52.7473 94.5436 53.1968 93.0826C53.4745 92.1801 53.8198 90.4637 54.7113 89.9543C58.0224 88.0622 61.3483 89.0335 62.1845 93.095C62.7398 95.7918 62.9955 99.4965 62.3087 102.244" stroke="black" stroke-width="3" stroke-linecap="round"/>
<path d="M71.2466 83.9211C71.2466 86.8465 71.47 89.7538 71.47 92.6854C71.47 96.0464 70.5315 100.395 72.6866 103.138C73.6085 104.311 75.7069 104.255 77.0439 104.255C77.9356 104.255 79.3871 104.413 79.7377 103.361" stroke="black" stroke-width="3" stroke-linecap="round"/>
<path d="M69.0122 92.8591C70.0976 92.8591 70.9852 93.1719 72.0412 93.3929C73.5113 93.7006 75.1122 93.5295 76.6095 93.5295" stroke="black" stroke-width="3" stroke-linecap="round"/>
<path d="M34.918 104.274C34.9648 103.806 35.281 103.39 35.4517 102.962C35.6599 102.439 35.8826 101.933 36.0359 101.389C36.2624 100.587 36.3237 99.8088 36.4145 98.984C36.5965 97.3308 36.6949 95.6687 36.9302 94.0221C37.0653 93.0758 37.1533 92.074 37.399 91.148C37.7494 89.8272 38.2177 88.3797 38.2897 87.0119C38.2962 86.8884 38.2304 86.6017 38.3618 86.525C38.545 86.4181 38.8188 86.7596 38.9135 86.8676C39.8261 87.9076 40.2879 89.4307 40.7093 90.7225C41.3642 92.7301 41.7692 94.9296 41.9282 97.0368C41.9976 97.956 42.2367 98.8205 42.3465 99.7305C42.3912 100.101 42.4541 100.436 42.5376 100.798C42.6005 101.07 42.5431 101.322 42.7071 101.562C42.9574 101.93 42.9258 102.377 43.0605 102.781C43.1233 102.97 43.2438 103.113 43.2769 103.315C43.3115 103.527 43.2982 103.794 43.4211 103.978C43.5399 104.157 43.5253 104.394 43.5545 104.599C43.598 104.903 43.7292 105.352 43.6158 104.729" stroke="black" stroke-width="3" stroke-linecap="round"/>
<path d="M37.8389 98.1077C38.9106 98.5989 39.8839 98.3603 40.9545 97.9779" stroke="black" stroke-width="3" stroke-linecap="round"/>
<path d="M39.8032 54.2583C39.9878 57.7982 40.712 61.2518 40.712 64.835C40.712 68.327 40.3646 57.6289 41.7344 54.4073C42.5065 52.5913 43.3469 51.0849 45.584 51.701C46.4661 51.9439 46.619 52.5503 46.619 53.3645" stroke="black" stroke-width="3" stroke-linecap="round"/>
<path d="M53.8894 53.3645C52.2531 53.3645 51.766 56.7428 51.4408 57.9328C50.974 59.641 50.6362 61.6832 51.668 63.2708C52.6442 64.7729 54.7973 64.7367 56.2623 64.0281C60.2031 62.1219 61.0577 56.2506 59.0896 52.6817C58.112 50.909 55.5125 50.3939 55.2526 52.6941" stroke="black" stroke-width="3" stroke-linecap="round"/>
<path d="M63.8381 49.8635C63.8381 49.4759 64.2936 49.0199 64.7469 49.2428C65.7971 49.7593 66.2183 52.4319 66.3373 53.4263C66.5636 55.3186 66.5644 57.167 66.5644 59.0746C66.5644 61.4043 66.7916 63.645 66.7916 65.952" stroke="black" stroke-width="3" stroke-linecap="round"/>
<path d="M63.6111 41.8193C61.6168 41.8193 65.0088 46.6492 65.6053 43.7807C65.8626 42.5435 65.8494 41.7403 64.6334 41.3724C63.8691 41.141 63.2737 41.2098 63.8383 42.0427" stroke="black" stroke-width="3" stroke-linecap="round"/>
<path d="M77.5171 50.4596C77.4229 48.6982 75.6366 48.7067 74.5763 49.7148C72.3821 51.8009 72.4409 55.6709 74.5763 57.7094C75.8697 58.944 77.4449 59.7749 76.9618 61.7315C76.3567 64.182 75.3939 65.4308 72.7461 65.4308" stroke="black" stroke-width="3" stroke-linecap="round"/>
<path d="M32.6162 43.5978C32.4332 42.2792 28.5435 44.5803 28.2056 44.9882C25.5386 48.2079 24.3008 51.8752 23.5606 55.8007C23.1539 57.958 22.9485 60.2858 23.4641 62.4422C24.1202 65.1856 25.8612 65.7067 28.8534 65.9181C30.3001 66.0203 31.289 65.8945 32.6162 65.496" stroke="black" stroke-width="3" stroke-linecap="round"/>
</svg>
